<?xml version="1.0" encoding="utf-8"?>
<!-- Generator: Adobe Illustrator 24.1.2, SVG Export Plug-In . SVG Version: 6.00 Build 0)  -->
<svg version="1.1" id="Camada_1" xmlns="http://www.w3.org/2000/svg" xmlns:xlink="http://www.w3.org/1999/xlink" x="0px" y="0px"
	 viewBox="0 0 1826.3 1190" style="enable-background:new 0 0 1826.3 1190;" xml:space="preserve">
<style type="text/css">
	.st0{opacity:0.44;}
	.st1{fill:#B01C1B;}
	.st2{opacity:0.24;}
	.st3{fill:#B01A18;}
</style>
<g class="st0">
	<path class="st1" d="M89.7,156.4c-3.1,3.9-7.9,5.6-11.7,8.6c-1,0.7-1.8,0.4-2.3-0.6c-1.4-2.2-3.6-4.3-4.1-6.8
		c-1.5-7.3-6-12.9-10-18.9c-2.6-3.9-4.9-8-7.9-11.5c-2.5-2.9-5.7-5.3-7.7-8.8c-1.2-2-1.4-2.9,1.2-3.3c1.2-0.2,2.7-0.2,3.3-1.8
		c0.9-2.3,2.5-3.7,5.1-3.5c1,0.1,1.9-0.5,2.1-1.4c0.8-2.5,3.7-2.4,4.9-3.6c3-3,7.3-3.8,9.9-7c0.2-0.2,0.2-0.6,0.4-0.7
		c4.2-0.8,6.3-5.1,10.3-6.2c1.5-0.4,2.8-0.7,3.5-2.2c1.6-3.2,3.2-2,4.1,0.3c3.6,9,9.3,16.8,14.6,24.7c0.6,0.9,1.2,1.7,1.9,2.6
		c0.4,0.8,0.9,1.8-0.4,2.3s-1.5-0.8-2-1.4c-4.2-6.2-8.5-12.4-12.7-18.6c0-1.1,0-2.1-0.1-3.1c-0.6-3.1-2.6-4.1-5.4-2.7
		c-2.7,0.2-5.4,0.3-6.4,3.5c-0.2,0.6-0.7,1.1-1.4,1.2c-3.1,0-4.3,2.6-6.2,3.9c-2.7,1.8-5.9,2.6-7.8,5.6c-0.2,0.2-0.8,0.3-1.2,0.3
		c-2.5-0.2-3.9,1.2-4.6,3.5l-1,1.2c-5.1-1.5-5.6,5-10.1,5.5c2,1.7,2.1,4.3,4.7,5.1c0.7,0.4,1.5,0.7,1.9,1.3c6,9.5,13.3,18,18,28.3
		c0.2,2,0.5,3.9,1.8,5.5c0.5,1.6,1.4,2.9,2.7,4c0.3,0.6,0.7,0.4,1.1,0l10-6.4L89.7,156.4z M88.8,90.9l-0.2,0.5
		c0.1,0,0.3,0.1,0.3,0.1c0.1-0.2,0.2-0.3,0.3-0.5L88.8,90.9z"/>
	<path class="st1" d="M107.2,144c-3.9,5.3-9.6,8.2-15.4,11l-2.5-0.5l-1.9-1.3l-1.4-1.9l-6.9-10.8l18.5-12.6l6.6-4.4
		c2.1-1.3,4.2-2.8,6.3-4c0.9-0.5,1.9-2.1,3-0.7c0.9,1.2-0.6,1.7-1.4,2.4c-1.2,0.9-1.3,1.6,0.3,2.1c3.1,2.9,6.4,5.4,8.7,9.2
		c1.2,2.1,1.5,3.2-0.9,4.7c-3.7,2.2-7.1,4.6-10.6,7.1c-1-1.6-0.4-2.7,1.1-3.6c1.2-0.7,2.4-1.6,3.7-2.4c5.8-3.9,5.9-5.1,0.4-9.8
		c-0.2-0.2-0.4-0.3-0.6-0.5c-5.4-4.5-5.3-4.3-11.1-0.7c-3.1,1.9-3.2,3.2-1.2,6C104.1,136.3,107.8,139.2,107.2,144z M98.4,148.6
		c1.5-1,3.1-2.1,4.6-3.1s2.4-2.7,1.4-4.4c-2.1-3.4-3.8-7.6-6.9-9.5c-2.1-1.2-5.1,2.9-7.8,4.4c-0.8,0.5-1.5,1-2.3,1.6
		c-5,3.4-5,3.4-1.7,8.4C90.9,153.9,90.2,154.2,98.4,148.6z"/>
	<path class="st1" d="M88.8,90.9l0.4,0.1c-0.1,0.2-0.2,0.3-0.3,0.5c-0.1,0-0.2,0-0.3-0.1L88.8,90.9z"/>
	<path class="st1" d="M77.1,161.9h1.1C77.8,162.3,77.5,162.5,77.1,161.9z"/>
	<path class="st1" d="M72.8,137.9c-0.5,2-1.3,2.7-2.7,0.6c-2.8-4.2-5.5-8.4-8.4-12.5c-1.5-2.1,0.2-2.7,1.5-3.6
		c9-6,18.1-12.1,27-18.1l10.7,15.6c-1.5,1.8-2.3,0.8-3.2-0.6c-2.1-3.2-4.3-6.3-6.4-9.6c-1-1.6-1.9-2.2-3.7-0.9
		c-7.1,5-14.5,9.8-21.8,14.6c-1.5,1-1.9,1.9-0.7,3.4c2.2,3,4.3,6.1,6.3,9.1L72.8,137.9z"/>
	<path class="st1" d="M92.6,127.6c0,2-1.4,2.3-2.8,2.1c-2.9-0.3-4.7,0.9-5.4,3.7c-0.1,1.2-1.2,2.1-2.5,1.9l0,0
		c-0.2,0-0.2-0.9-0.4-1.4l0.3-1l1-2.7l3.9-2.8h4.8L92.6,127.6z"/>
</g>
<g class="st2">
	<path class="st1" d="M20.4,1189c-6,1.9-12.1,0.3-18.2,0.8c-1.5,0.1-2.1-0.8-2-2.2c0.1-3.3-0.7-7,0.5-9.9c3.5-8.7,2.7-17.6,2.8-26.6
		c0-5.8,0.5-11.7-0.2-17.4c-0.6-4.8-2.2-9.5-2-14.5c0.2-2.9,0.6-4,3.6-2.6c1.4,0.7,2.9,1.7,4.7,0.5c2.5-1.8,5.1-2.1,7.7-0.1
		c0.9,0.8,2.3,0.8,3.2,0c2.6-2,5.5,0.2,7.6-0.3c5.2-1.2,10.2,1.1,15.2-0.4c0.3-0.1,0.7-0.5,0.9-0.4c4.9,2.1,10.2-1,15,0.7
		c1.8,0.6,3.4,1.2,5.2,0.2c3.9-2.2,4.7,0.1,4,3.2c-2.5,11.9-2,23.9-2,35.9c0,1.3,0.1,2.7,0.2,4c-0.2,1.1-0.3,2.5-2,2.1
		c-1.7-0.4-1-1.8-1-2.9c-0.1-9.4-0.2-18.8-0.2-28.2c0.8-1.1,1.4-2.2,2-3.3c1.5-3.6,0.1-6.1-3.7-6.7c-2.9-1.7-5.8-3.4-9.1-0.8
		c-0.7,0.5-1.5,0.6-2.3,0.3c-3.2-2.2-6.2-0.3-9.2-0.3c-4,0-8-1.4-12,0.4c-0.3,0.1-1-0.2-1.4-0.5c-2.6-2-4.9-1.4-7.2,0.4l-1.9,0.5
		c-4.3-5.1-9.3,1.3-14.4-1.3c0.9,3.2-0.8,6,1.3,8.6c0.4,0.9,1.1,1.8,1,2.7c-0.4,14,1.3,28-1,41.9c-1.2,2.2-2.3,4.4-2,7
		c-0.6,2-0.6,4,0,6c0,0.9,0.5,0.9,1.1,0.8l14.8,0.3L20.4,1189z M65.1,1120.2l-0.6,0.3c0.1,0.1,0.2,0.3,0.3,0.3
		c0.2-0.1,0.5-0.2,0.7-0.3L65.1,1120.2z"/>
	<path class="st1" d="M47.2,1188.2c-7.8,2.8-15.7,1.8-23.6,0.7l-2.2-2.3l-1.1-2.7l-0.1-3l0.3-16l28-0.3h10c3.1,0.1,6.3,0,9.4,0.2
		c1.3,0.1,3.4-0.9,3.6,1.3c0.1,1.8-1.8,1.4-3,1.5c-1.8,0.1-2.5,0.7-1.1,2.4c1.2,5.1,2.9,10.1,2.6,15.6c-0.2,3.1-0.7,4.4-4.2,4.3
		c-5.3-0.3-10.6-0.1-16,0c0.1-2.3,1.5-3.1,3.6-3c1.8,0.1,3.6,0,5.5,0c8.8,0,9.7-1.2,7.3-9.9c-0.1-0.3-0.2-0.6-0.3-1
		c-2.4-8.4-2.5-8.1-11-8.5c-4.5-0.2-5.5,1.1-5.4,5.4C49.4,1178,51.2,1183.6,47.2,1188.2z M34.9,1186.8c2.3,0,4.7,0,7,0
		s4.4-1.1,4.5-3.6c0.2-5,1.3-10.6-0.6-14.7c-1.3-2.7-7.3-0.5-11.2-0.9c-1.2-0.1-2.3,0-3.5,0c-7.6,0-7.6,0-7.6,7.5
		C23.4,1187.2,22.3,1187,34.9,1186.8L34.9,1186.8z"/>
	<path class="st1" d="M65.1,1120.2l0.4,0.3c-0.2,0.1-0.4,0.2-0.7,0.3c-0.1,0-0.2-0.2-0.3-0.3L65.1,1120.2z"/>
	<path class="st1" d="M3.4,1185.9l1.1,0.8C3.9,1186.8,3.3,1186.8,3.4,1185.9z"/>
	<path class="st1" d="M15.6,1158c-1.9,1.7-3.2,1.9-3.2-1.3c0-6.3,0.1-12.6,0-18.9c-0.1-3.3,2.1-2.7,4-2.7l40.7,0.1l0.3,23.7
		c-2.8,0.8-3-0.8-2.9-2.9c0.1-4.8-0.1-9.6,0.1-14.4c0.1-2.4-0.4-3.6-3.2-3.5c-10.9,0.2-21.9,0.1-32.8,0c-2.3,0-3.3,0.6-3.1,3
		c0.2,4.6,0.2,9.3,0.2,13.9L15.6,1158z"/>
	<path class="st1" d="M43.5,1161c-1.4,2.1-3.1,1.4-4.4,0.2c-2.9-2.4-5.5-2.4-8.2,0.1c-1,1.2-2.7,1.3-3.9,0.3l0,0
		c-0.1-0.1,0.4-1.1,0.6-1.7l1-0.9l2.9-2.1l6-0.2l5,3.3L43.5,1161z"/>
</g>
<g class="st2">
	<path class="st1" d="M1775.3,1183.3c-6,1.9-12.2,0.3-18.2,0.8c-1.5,0.1-2.1-0.8-2-2.2c0.1-3.3-0.7-7,0.5-9.9
		c3.5-8.7,2.7-17.6,2.8-26.6c0-5.8,0.5-11.7-0.2-17.4c-0.6-4.8-2.2-9.5-2-14.5c0.2-2.9,0.6-4,3.6-2.6c1.4,0.7,3,1.7,4.7,0.5
		c2.5-1.8,5.1-2.1,7.7-0.1c0.9,0.8,2.3,0.8,3.2,0c2.6-2,5.6,0.2,7.6-0.3c5.2-1.2,10.2,1.1,15.2-0.4c0.3-0.1,0.7-0.5,0.9-0.4
		c4.9,2.1,10.2-1,15,0.7c1.8,0.6,3.4,1.2,5.2,0.2c3.9-2.2,4.7,0.1,4,3.2c-2.5,11.9-2,23.9-2,35.9c0,1.3,0.1,2.7,0.2,4
		c-0.2,1.1-0.3,2.5-2,2.1s-1-1.8-1-2.9c-0.1-9.4-0.2-18.8-0.2-28.2c0.8-1.1,1.4-2.2,2-3.3c1.5-3.6,0.1-6.1-3.7-6.7
		c-2.9-1.7-5.8-3.4-9.1-0.8c-0.7,0.5-1.5,0.6-2.3,0.3c-3.2-2.2-6.2-0.3-9.2-0.3c-4,0-8-1.4-12,0.4c-0.3,0.2-1-0.2-1.3-0.5
		c-2.6-2-4.9-1.4-7.2,0.4l-1.8,0.5c-4.3-5.1-9.3,1.3-14.4-1.3c0.9,3.2-0.8,6,1.3,8.6c0.4,0.9,1.1,1.8,1,2.7c-0.4,14,1.3,28-1,41.9
		c-1.2,2.2-2.3,4.4-2,7c-0.6,2-0.6,4,0,6c0,0.9,0.5,0.9,1.1,0.8l14.8,0.3L1775.3,1183.3z M1820,1114.5l-0.6,0.3
		c0.1,0.1,0.3,0.3,0.3,0.3c0.2-0.1,0.5-0.2,0.7-0.3L1820,1114.5z"/>
	<path class="st1" d="M1802,1182.5c-7.8,2.8-15.7,1.8-23.6,0.7l-2.2-2.3l-1.1-2.7l-0.1-3l0.3-16l28-0.3h10c3.1,0.1,6.3,0,9.4,0.2
		c1.3,0.1,3.4-0.9,3.6,1.3c0.1,1.8-1.8,1.4-3,1.5c-1.8,0.1-2.5,0.7-1.1,2.4c1.2,5.1,2.9,10.1,2.6,15.6c-0.2,3.1-0.7,4.4-4.2,4.3
		c-5.3-0.3-10.6,0-16,0c0.1-2.3,1.5-3.1,3.6-3c1.8,0.1,3.6,0,5.5,0c8.8,0,9.7-1.2,7.3-9.9c-0.1-0.3-0.2-0.6-0.3-1
		c-2.4-8.4-2.5-8.1-11.1-8.5c-4.5-0.2-5.5,1.1-5.4,5.4C1804.3,1172.4,1806.1,1177.9,1802,1182.5z M1789.8,1181.2c2.3,0,4.7,0,7,0
		s4.4-1.1,4.5-3.6c0.2-5,1.3-10.6-0.6-14.7c-1.3-2.7-7.3-0.5-11.2-0.9c-1.2-0.1-2.3,0-3.5,0c-7.6,0-7.6,0-7.6,7.5
		C1778.2,1181.5,1777.2,1181.3,1789.8,1181.2z"/>
	<path class="st1" d="M1819.9,1114.5l0.3,0.3c-0.2,0.1-0.4,0.2-0.7,0.3c-0.1,0-0.2-0.2-0.3-0.3L1819.9,1114.5z"/>
	<path class="st1" d="M1758.2,1180.3l1.1,0.8C1758.7,1181.2,1758.2,1181.2,1758.2,1180.3z"/>
	<path class="st1" d="M1770.5,1152.3c-1.9,1.7-3.2,1.9-3.2-1.3c0-6.3,0.1-12.6,0-18.9c-0.1-3.3,2.1-2.7,4-2.7h40.7l0.3,23.7
		c-2.8,0.8-3-0.8-2.9-2.9c0.1-4.8-0.1-9.6,0.1-14.4c0.1-2.4-0.4-3.6-3.2-3.5c-10.9,0.2-21.9,0.1-32.8,0c-2.3,0-3.3,0.6-3.2,3
		c0.2,4.6,0.2,9.3,0.2,13.9V1152.3z"/>
	<path class="st1" d="M1798.3,1155.3c-1.4,2.1-3.1,1.4-4.4,0.2c-2.9-2.4-5.5-2.4-8.2,0.1c-1,1.2-2.7,1.3-3.8,0.3l0,0
		c-0.2-0.1,0.4-1.1,0.6-1.7l1-0.9l3-2.1l6-0.2l5,3.3L1798.3,1155.3z"/>
</g>
<g class="st0">
	<path class="st3" d="M147.8,382.5c-3.4-0.7-7.1,1-10.8-1.6c-1.8-1.3-5.2,0-7.8-0.3c-4.4-0.6-7.5,0.8-9.1,5
		c-0.2,0.5-0.6,0.9-0.8,1.1c-0.6,0.2-0.7,0.1-0.6-0.2c0.6-5.9,0.5-5.4-5.3-6c-4.8-0.5-8.6,2.9-13.3,2c-1.7-0.3-4.9,1.1-3.1-2.9
		c-2.6-2.1-1.1-5.5-0.8-7.3c0.4-2.5,0.2-5.3,0.2-7.4c0-5.7,3.7-4,5.8-3.6c4.7,1,9.2,1.7,14,1.7c3.6,0,6.2-0.6,7.7-4.1
		c0.3-0.8,1-1.4,1.5-2.1c0.2,0.3,0.4,0.5,0.4,0.6c-0.4,5.6-0.4,5.1,5.2,5.7c5,0.5,9.4-2.9,14.3-1.9c0.8,0.2,1.8,0,2.6,0
		C148.6,368.2,148.5,375.1,147.8,382.5z M119.8,364.7c-3.7,0-6.9,0.1-10.1,0c-1.9-0.1-3.8,0.5-5.5-1.4c-0.7-0.8-3-0.3-4.5-0.3
		c-1.6,0.1-0.3,1.8-1.2,2.3c-2.5,1.6,0.7,3,0.2,4.7c-0.8,2.8-0.8,5.7-0.1,8.7c0.5,2,1.4,1.9,2.7,1.8c3.7-0.5,7.1-2.4,11-1.7
		c1.6,0.3,3.3-0.1,5,0.1c2,0.2,2.3-0.8,2.5-2.5c0.1-2.1-1.2-1.7-2.4-1.7s-2.4,0-4,0C115.7,371.2,117.6,368.2,119.8,364.7z
		 M124.5,378.3c0.4,0.2,0.6,0.5,0.8,0.5c3.7,0,7.3,0,11,0.1c1.1,0,2.2-0.3,3.1,0.7c1.7,1.8,3.9,0.8,5.9,0.7c-0.3-1.8,1.6-3,0.7-5.4
		c-0.6-1.7-0.6-4.5,0-6.7c0.8-2.7-0.9-5.9-3.4-5.1c-5.3,1.8-10.7,1.6-16.1,1.5c-1.5,0-2,0.7-2,2c0,1.5,1.2,1,1.9,1.1
		c1.3,0.1,2.6,0,4.5,0C128.6,371.6,126.6,375,124.5,378.3z M123.1,363.8c-2.6,3-4.3,5.8-5.9,8.5c0.7,0.8,1.4,0.6,2,0.5
		c2.6-0.4,3,0.9,2.4,3c-0.1,0.3-0.4,0.5-0.5,0.8c-0.1,0.6-0.5,1.4,0.4,1.7c0.7,0.2,0.9-0.4,1.2-0.9c1.2-1.9,2.2-3.8,3.5-5.6
		c1.4-2,0.7-2.5-1.4-2.2c-2.4,0.3-2.9-0.8-2.4-2.8C122.8,366.2,122.8,365.5,123.1,363.8z"/>
	<path class="st3" d="M113.8,355.4c-0.3,0.4-0.4,0.7-0.7,0.9c-0.6,0.4-1,0-1.3-0.5c-0.8-1.3-1.5-2.7-2.3-4c-0.3-0.4-0.4-0.9,0-1.2
		c0.3-0.2,1.1-0.4,1.2-0.2C111.7,352.1,112.7,353.8,113.8,355.4z"/>
	<path class="st3" d="M113.7,388.2c-1,1.7-1.9,3.3-2.9,4.8c-0.1,0.2-0.7,0.2-0.9,0.1c-0.3-0.2-0.7-0.8-0.6-1
		c0.9-1.6,1.8-3.2,2.8-4.8c0.2-0.4,0.8-0.3,1.2,0C113.5,387.6,113.6,388,113.7,388.2z"/>
	<path class="st3" d="M131.4,356.4c-0.1-0.2-0.7-0.7-0.6-0.8c0.9-1.7,1.9-3.4,2.9-5c0.2-0.3,0.8-0.2,1.1,0.2
		c0.1,0.1,0.1,0.2,0.2,0.3C135.4,351.8,132.3,356.6,131.4,356.4z"/>
	<path class="st3" d="M131.8,387.2c0.8,0.1,3.5,4.8,3.2,5.5c-0.2,0.4-0.5,0.7-1.1,0.5s-3.3-4.8-3.1-5.3
		C130.9,387.4,131.3,387.2,131.8,387.2z"/>
	<path class="st3" d="M121.2,350.5c0-0.8,0-1.3,0-1.9c0-0.8,0-1.6,1.2-1.5c0.9,0.1,0.7,0.9,0.8,1.5c0,0.5,0.1,1.1,0,1.6
		c-0.3,1.2,0.7,3.3-0.8,3.4C120.1,353.7,121.7,351.4,121.2,350.5z"/>
	<path class="st3" d="M123.1,393.2c-0.4,0.9,0.9,3-0.9,3.1c-1.9,0-0.7-2.1-1-3.2c-0.1-0.3-0.1-0.7,0-1c0.1-0.9-0.5-2.3,1.1-2.2
		c1.3,0.1,0.6,1.4,0.8,2.1C123.2,392.4,123.1,392.7,123.1,393.2z"/>
	<path class="st3" d="M115.2,366.6c-0.2,2.4-2.1,2.3-3.4,3.1c-2,1.2-4.1,2.3-2.4,5.1c0.3,0.6,0.3,1.1-0.2,1.4
		c-0.8,0.5-1.2-0.2-1.5-0.7c-1.3-2.1-0.9-4,0.8-5.7C110.2,368.1,112.5,367.3,115.2,366.6z"/>
	<path class="st3" d="M128.5,377c0.5-2.2,2.3-2.2,3.6-2.8c3.4-1.6,3.8-2.5,2.4-5.8c-0.2-0.6-0.3-1.1,0.1-1.5c0.5-0.5,1,0,1.4,0.4
		c2,1.8,2,4.6-0.2,6.7C134.4,375.4,132,376.3,128.5,377z"/>
</g>
<g class="st0">
	<path class="st1" d="M1507.2,241.3c4.1,3.2,6.9,7.6,12,8.9c1.4,0.3,2.2,0.7,2.7-0.8c0.7-2.3,1.3-4.6,2-7c0.5-1.5-0.6-1.6-1.5-2.1
		c-2.6-1.5-3.5-4.3-2.3-6.7c1.3-2.3,3.7-2.7,6.7-1.6c4.4,1.6,5.9,4.1,5.1,8.7c-0.9,5-0.4,10.1-1.8,14.9
		c-2.1,7.7-10.1,12.3-17.9,10.1c-1.1-0.3-2.2-0.8-3.3-1.3c-6.2-3.5-6.4-3.4-10.4,2.3c-2.9,4.1-5.7,8.3-8.7,12.4
		c-2.8,3.8-6.2,4.4-10,1.9c-8-5.5-16-11.1-23.9-16.8c-4.2-3-4.7-5.7-1.7-10.1c3.1-4.6,6.1-9.2,9.5-13.4c3.1-3.8,1.5-6.4-1.3-8.9
		c-9.4-8.6-8-19.9,3.5-25.5c4.1-2,8.3-4,12.5-5.7c3.7-1.6,9.4,2.4,9.4,6.4c0,1.6-0.1,3.2-1.8,3.9c-2,0.7-4.1,1.1-6.1-0.3
		c-2.1-1.4-10.1,2.6-9.2,4.5c1.1,2.6,3.1,4.7,5.5,6.2c2.1,1.3,4.6,3,6.9,3.2c2.5,0.2,2.5-3.7,4-5.6c2.1-2.7,3.8-2.9,6.4-1
		c5.1,3.8,10.4,7.4,15.6,11.1c5.2,3.7,5.3,4.3,1.4,9.2C1509.5,239.3,1508.4,240.3,1507.2,241.3z M1469.2,270.1c4,2.8,8,5.5,11.9,8.5
		c2.8,2.1,4.8,1.7,6.7-1.2c3.9-5.8,7.6-11.9,12.1-17.1c5.9-6.8,5.8-14,3.6-21.9c-0.3-1-2.2-1.6-0.7-3c1.1-1.1,1.9,0.3,2.7,0.9
		c2,1.7,2.8,0.4,3.9-1c1.4-1.9,0.2-2.6-1.1-3.5c-5.2-3.7-10.5-7.4-15.7-11c-1.4-1-2.5-1.5-3.7,0.4s-1.4,2.8,0.6,4
		c2.7,1.7,5.3,3.6,7.8,5.5c0.8,0.6,2.8,1,1.8,2.6c-1.2,1.9-2.4,0.1-3.4-0.6c-3.9-2.4-7-5.8-12.7-4.5c-4.3,1-8.3,1.9-11,5.6
		c-5.2,7.2-10.4,14.7-15.7,22.2c-1.8,2.6-1.1,4.4,1.4,6.1C1461.6,264.6,1465.4,267.3,1469.2,270.1z M1508,246.2
		c-0.4,2.5,0.1,5.9-1.3,7.6c-4.4,4.8-2,5.3,2.5,7.6c9,4.6,17.9,0.9,19.2-9.2c0.4-3.5-0.4-7.4,0.6-10.7c1.2-4.2-1.3-5.3-3.8-7.1
		c-1-0.7-2.1-0.7-2.8,0.3c-0.7,1.4,0.8,1.7,1.6,2.2c1.1,0.7,3.3-0.2,2.9,2.4c-0.7,4.8-1.4,9.5-3.9,13.8c-0.7,1.2-1.4,2.6-3,0.9
		C1516.7,250.5,1510.1,251.7,1508,246.2L1508,246.2z M1478.4,225.4c-5.5-0.9-6.2-6.1-10.1-7.8c-2.9-1.2-1.7-2.7-0.4-4.1
		c3.1-3.2,6.8-5.5,10.6-7.8c1.9-1.1,2.4-0.1,2.7,1.4c0.3,1.6,1.6,1.6,2.8,1.4c0.8-0.1,1.2-0.8,1.2-1.5v-0.1c-0.1-2.2-4-4.9-6-3.9
		c-4.8,1.9-9.5,4.2-14,6.6c-6.9,4-8,14.3-2.1,19c1.9,1.6,3.6,3,4.6,6.2C1470.3,230.7,1473.7,228.2,1478.4,225.4L1478.4,225.4z"/>
	<path class="st1" d="M1469.1,264.3c1.7-2.5,2.7-4.1,3.9-5.6c4.2-5,4.2-4.9-1.1-9.4l21.7-8.6c-0.3,2.3-1.6,4.6-3.5,5.9
		c-3.3,2.7-2.5,4.5,0.8,6.2c0.8,0.6,1.5,1.1,2.2,1.7C1485.1,257.8,1477.8,261.8,1469.1,264.3z M1476.8,250.2c5.6,2.1,3.7,4.7,2,7.7
		l9-3.9c-3.1-1.7-5.4-3.2-2.7-7L1476.8,250.2z"/>
</g>
<g class="st0">
	<path class="st3" d="M1567.3,469.1c-3.4-0.7-7.1,1-10.8-1.6c-1.8-1.3-5.2,0-7.8-0.3c-4.4-0.6-7.5,0.8-9.1,5
		c-0.2,0.5-0.6,0.9-0.8,1.1c-0.6,0.2-0.7,0.1-0.6-0.2c0.6-5.9,0.5-5.4-5.3-6c-4.8-0.5-8.6,2.9-13.3,2c-1.7-0.3-4.9,1.1-3.1-2.9
		c-2.6-2.1-1.1-5.5-0.8-7.3c0.4-2.5,0.2-5.3,0.2-7.4c0-5.7,3.7-4,5.8-3.6c4.7,1,9.2,1.7,14,1.7c3.6,0,6.2-0.6,7.7-4.1
		c0.3-0.8,1-1.4,1.5-2.1c0.2,0.3,0.4,0.5,0.4,0.6c-0.4,5.6-0.4,5.1,5.2,5.7c5,0.5,9.4-2.9,14.3-1.9c0.8,0.2,1.8,0,2.6,0
		C1568.1,454.7,1568,461.6,1567.3,469.1z M1539.3,451.2c-3.7,0-6.9,0.1-10.1,0c-1.9-0.1-3.8,0.5-5.5-1.4c-0.7-0.8-3-0.3-4.5-0.3
		c-1.6,0.1-0.3,1.8-1.2,2.3c-2.5,1.6,0.7,3,0.2,4.7c-0.8,2.8-0.8,5.7-0.1,8.7c0.5,2,1.4,1.9,2.7,1.8c3.7-0.5,7.1-2.4,11-1.7
		c1.6,0.3,3.3-0.1,5,0.1c2,0.2,2.3-0.8,2.5-2.5c0.1-2.1-1.2-1.7-2.4-1.7c-1.2,0-2.4,0-4,0C1535.1,457.7,1537.1,454.7,1539.3,451.2z
		 M1544,464.8c0.4,0.2,0.6,0.5,0.8,0.5c3.7,0,7.3,0,11,0.1c1.1,0,2.2-0.3,3.1,0.7c1.7,1.8,3.9,0.8,5.9,0.7c-0.3-1.8,1.6-3,0.7-5.4
		c-0.6-1.7-0.6-4.5,0-6.7c0.8-2.7-0.9-5.9-3.4-5.1c-5.3,1.8-10.7,1.6-16.1,1.5c-1.5,0-2,0.7-2,2c0,1.5,1.2,1,1.9,1.1
		c1.3,0.1,2.6,0,4.5,0C1548.1,458.2,1546,461.5,1544,464.8z M1542.6,450.4c-2.6,3-4.3,5.8-5.9,8.5c0.7,0.8,1.4,0.6,2,0.5
		c2.6-0.4,3,0.9,2.4,3c-0.1,0.3-0.4,0.5-0.5,0.8c-0.1,0.6-0.5,1.4,0.4,1.7c0.7,0.2,0.9-0.4,1.2-0.9c1.2-1.9,2.2-3.8,3.5-5.6
		c1.4-2,0.7-2.5-1.4-2.2c-2.4,0.3-2.9-0.8-2.4-2.8C1542.2,452.7,1542.3,452,1542.6,450.4z"/>
	<path class="st3" d="M1533.3,442c-0.3,0.4-0.4,0.7-0.7,0.9c-0.6,0.4-1,0-1.3-0.5c-0.8-1.3-1.5-2.7-2.3-4c-0.3-0.4-0.4-0.9,0-1.2
		c0.3-0.2,1.1-0.4,1.2-0.2C1531.2,438.6,1532.2,440.3,1533.3,442z"/>
	<path class="st3" d="M1533.2,474.8c-1,1.7-1.9,3.3-2.9,4.8c-0.1,0.2-0.7,0.2-0.9,0.1c-0.3-0.2-0.7-0.8-0.6-1
		c0.9-1.6,1.8-3.2,2.8-4.8c0.2-0.4,0.8-0.3,1.2,0C1533,474.2,1533,474.5,1533.2,474.8z"/>
	<path class="st3" d="M1550.8,442.9c-0.1-0.2-0.7-0.7-0.6-0.8c0.9-1.7,1.9-3.4,2.9-5c0.2-0.3,0.8-0.2,1.1,0.2
		c0.1,0.1,0.1,0.2,0.2,0.3C1554.8,438.3,1551.8,443.1,1550.8,442.9z"/>
	<path class="st3" d="M1551.3,473.7c0.8,0.1,3.5,4.8,3.2,5.5c-0.2,0.4-0.5,0.7-1.1,0.5s-3.3-4.8-3.1-5.3
		C1550.4,473.9,1550.8,473.7,1551.3,473.7z"/>
	<path class="st3" d="M1540.6,437c0-0.8,0-1.3,0-1.9c0-0.8,0-1.6,1.2-1.5c0.9,0.1,0.7,0.9,0.8,1.5c0,0.5,0.1,1.1,0,1.6
		c-0.3,1.2,0.7,3.3-0.8,3.4C1539.5,440.3,1541.2,437.9,1540.6,437z"/>
	<path class="st3" d="M1542.6,479.7c-0.4,0.9,0.9,3-0.9,3.1c-1.9,0-0.7-2.1-1-3.2c-0.1-0.3-0.1-0.7,0-1c0.1-0.9-0.5-2.3,1.1-2.2
		c1.3,0.1,0.6,1.4,0.8,2.1C1542.6,478.9,1542.6,479.2,1542.6,479.7z"/>
	<path class="st3" d="M1534.6,453.2c-0.2,2.4-2.1,2.3-3.4,3.1c-2,1.2-4.1,2.3-2.4,5.1c0.3,0.6,0.3,1.1-0.2,1.4
		c-0.8,0.5-1.2-0.2-1.5-0.7c-1.3-2.1-0.9-4,0.8-5.7C1529.7,454.6,1531.9,453.8,1534.6,453.2z"/>
	<path class="st3" d="M1548,463.5c0.5-2.2,2.3-2.2,3.6-2.8c3.4-1.6,3.8-2.5,2.4-5.8c-0.2-0.6-0.3-1.1,0.1-1.5c0.5-0.5,1,0,1.4,0.4
		c2,1.8,2,4.6-0.2,6.7C1553.8,461.9,1551.5,462.9,1548,463.5z"/>
</g>
</svg>
