<?xml version="1.0" encoding="utf-8"?>
<!-- Generator: Adobe Illustrator 24.1.2, SVG Export Plug-In . SVG Version: 6.00 Build 0)  -->
<svg version="1.1" id="Camada_1" xmlns="http://www.w3.org/2000/svg" xmlns:xlink="http://www.w3.org/1999/xlink" x="0px" y="0px"
	 viewBox="0 0 600 436" style="enable-background:new 0 0 600 436;" xml:space="preserve">
<g>
	
		<image style="overflow:visible;opacity:0.5;" width="822" height="1318" xlink:href="5B6786F5.png"  transform="matrix(0.24 0 0 0.24 58.3694 20.6832)">
	</image>
	<g>
		
			<image style="overflow:visible;" width="382" height="653" xlink:href="../../../Downloads/717P-1Cy--S._AC_SL1500_-removebg-preview.png"  transform="matrix(0.4476 0 0 0.4476 64.8161 27.3875)">
		</image>
	</g>
</g>
<g>
	
		<image style="overflow:visible;opacity:0.5;" width="851" height="1284" xlink:href="5B6786F2.png"  transform="matrix(0.24 0 0 0.24 345.8893 24.2832)">
	</image>
	<g>
		
			<image style="overflow:visible;" width="500" height="500" xlink:href="../../../Downloads/163591-1600-auto-_1_-removebg-preview.png"  transform="matrix(0.6193 0 0 0.6193 287.7267 18.7232)">
		</image>
	</g>
</g>
<g>
	
		<image style="overflow:visible;opacity:0.5;" width="1173" height="1449" xlink:href="5B6786FD.png"  transform="matrix(0.24 0 0 0.24 163.0094 6.7252)">
	</image>
	<g>
		
			<image style="overflow:visible;" width="1000" height="1000" xlink:href="../../../Downloads/165274-1600-auto.png"  transform="matrix(0.3181 0 0 0.3181 137.7095 14.51)">
		</image>
	</g>
</g>
<g>
	
		<image style="overflow:visible;opacity:0.95;" width="659" height="721" xlink:href="5B6786F3.png"  transform="matrix(0.24 0 0 0.24 404.52 228.84)">
	</image>
	<g>
		
			<image style="overflow:visible;" width="500" height="500" xlink:href="../../../Downloads/CREATINA-300-ME3657-1000x1000-removebg-preview.png"  transform="matrix(0.4057 0 0 0.4057 372.975 199.3024)">
		</image>
	</g>
</g>
<g>
	
		<image style="overflow:visible;opacity:0.75;" width="686" height="798" xlink:href="5B6786F6.png"  transform="matrix(0.24 0 0 0.24 297.4847 230.4535)">
	</image>
	<g>
		
			<image style="overflow:visible;" width="500" height="500" xlink:href="../../../Downloads/7062_PRETREINO_150G_FRUTAS_AMARELAS-removebg-preview.png"  transform="matrix(0.3723 0 0 0.3723 279.8914 226.6128)">
		</image>
	</g>
</g>
<g>
	
		<image style="overflow:visible;opacity:0.75;" width="584" height="716" xlink:href="35F6817E.png"  transform="matrix(0.24 0 0 0.24 47.4 224.76)">
	</image>
	<g>
		
			<image style="overflow:visible;" width="500" height="500" xlink:href="../../../Downloads/155500-800-auto-removebg-preview.png"  transform="matrix(0.4086 0 0 0.4086 8.6185 202.544)">
		</image>
	</g>
</g>
<g>
	
		<image style="overflow:visible;opacity:0.5;" width="687" height="767" xlink:href="35F6817A.png"  transform="matrix(0.24 0 0 0.24 138.3864 231.5514)">
	</image>
	<g>
		
			<image style="overflow:visible;" width="374" height="409" xlink:href="35F68176.png"  transform="matrix(0.4836 0 0 0.4836 124.8474 218)">
		</image>
	</g>
</g>
<g>
	
		<image style="overflow:visible;opacity:0.5;" width="395" height="915" xlink:href="35F68169.png"  transform="matrix(0.24 0 0 0.24 249.72 223.32)">
	</image>
	<g>
		
			<image style="overflow:visible;" width="500" height="500" xlink:href="../../../Downloads/barra-de-proteina-protein-crisp-sabor-trufa-de-avela-45g-integralmedica-c4c-removebg-preview.png"  transform="matrix(-4.201907e-04 -0.397 0.397 -4.201907e-04 191.2664 425.3236)">
		</image>
	</g>
</g>
</svg>
